<?xml version="1.0" encoding="UTF-8"?>
<svg id="Layer_1" data-name="Layer 1" xmlns="http://www.w3.org/2000/svg" viewBox="0 0 552.06 250.51">
  <defs>
    <style>
      .cls-1 {
        fill: #868789;
      }
    </style>
  </defs>
  <path class="cls-1" d="M0,111.05V0H30.54C38.53,0,44.55,2.22,48.59,6.66c4.04,4.44,6.06,10.93,6.06,19.46v51.99c0,10.52-1.84,18.63-5.52,24.35s-10.13,8.58-19.34,8.58H0Zm22.34-19.61h3.85c4.08,0,6.12-1.98,6.12-5.93V28.21c0-3.7-.49-6.09-1.48-7.16-.99-1.07-3-1.61-6.03-1.61h-2.46s0,71.99,0,71.99Z"/>
  <path class="cls-1" d="M64.45,111.05V0h34.07C104.2,0,108.49,1.29,111.39,3.88s4.85,6.2,5.84,10.85c.99,4.65,1.48,10.11,1.48,16.37s-.77,10.89-2.3,14.51c-1.54,3.62-4.43,6.12-8.68,7.51,3.49,.72,5.94,2.45,7.35,5.21,1.41,2.76,2.11,6.32,2.11,10.69v42.02h-21.89v-43.47c0-3.24-.66-5.25-1.99-6.03-1.32-.78-3.46-1.17-6.4-1.17v50.67h-22.46Zm22.59-69.9h5.36c3.07,0,4.61-3.34,4.61-10.03,0-4.33-.34-7.17-1.01-8.52-.67-1.35-1.94-2.02-3.79-2.02h-5.17v20.57Z"/>
  <path class="cls-1" d="M125.44,111.05L136.17,0h37.67l10.54,111.05h-21.01l-1.58-17.92h-13.38l-1.39,17.92h-21.58Zm24.54-35.65h10.1l-4.86-56.47h-1.01l-4.23,56.47h0Z"/>
  <path class="cls-1" d="M197.87,111.05L185.95,0h21.7l6.12,70.1L220.02,0h20.7l5.93,70.1L252.58,0h21.96l-12.11,111.05h-26.63l-5.55-53.44-5.3,53.44h-27.08Z"/>
  <path class="cls-1" d="M326.61,111.05L314.69,0h21.7l6.12,70.1L348.76,0h20.7l5.93,70.1L381.32,0h21.96l-12.11,111.05h-26.63l-5.55-53.44-5.3,53.44h-27.08Z"/>
  <path class="cls-1" d="M411.09,111.05V0h21.45V111.05h-21.45Z"/>
  <path class="cls-1" d="M453.7,111.05V21.33h-13.19V0h48.58V21.33h-13.19V111.05h-22.2Z"/>
  <path class="cls-1" d="M497.43,111.05V0h22.08V39.69h10.47V0h22.08V111.05h-22.08V60.7h-10.47v50.35h-22.08Z"/>
  <path class="cls-1" d="M55.08,249.5v-89.72h-13.19v-21.33h48.58v21.33h-13.19v89.72h-22.2Z"/>
  <path class="cls-1" d="M98.81,249.5v-111.05h22.08v39.69h10.47v-39.69h22.08v111.05h-22.08v-50.35h-10.47v50.35h-22.08Z"/>
  <path class="cls-1" d="M163.79,249.5v-111.05h44.42v21.45h-21.83v21.64h20.95v20.88h-20.95v25.43h23.28v21.64h-45.87Z"/>
  <path class="cls-1" d="M253.72,249.5v-111.05h44.42v21.64h-22.08v17.67h20.95v21.39h-20.95v50.35h-22.34Z"/>
  <path class="cls-1" d="M306.9,249.5v-111.05h22.21v92.12h22.84v18.93h-45.05Z"/>
  <path class="cls-1" d="M386.92,250.51c-8.88,0-15.66-2.68-20.35-8.04s-7.03-13.11-7.03-23.25v-52.75c0-9.51,2.32-16.72,6.97-21.64s11.45-7.38,20.41-7.38,15.76,2.46,20.41,7.38,6.97,12.14,6.97,21.64v52.75c0,10.14-2.35,17.89-7.03,23.25-4.69,5.36-11.47,8.04-20.35,8.04Zm.19-20.44c3.36,0,5.05-3.26,5.05-9.78v-54.2c0-5.47-1.64-8.2-4.92-8.2-3.7,0-5.55,2.8-5.55,8.39v54.14c0,3.45,.42,5.92,1.26,7.41s2.23,2.24,4.16,2.24h0Z"/>
  <path class="cls-1" d="M433.08,249.5l-11.92-111.05h21.7l6.12,70.1,6.25-70.1h20.7l5.93,70.1,5.93-70.1h21.96l-12.11,111.05h-26.63l-5.55-53.44-5.3,53.44h-27.08Z"/>
</svg>